<svg width="46" height="19" viewBox="0 0 46 19" fill="none" xmlns="http://www.w3.org/2000/svg">
<path d="M8.35897 2.44972C7.82126 3.0904 6.96464 3.59807 6.10946 3.52371C5.99648 2.65994 6.42264 1.73468 6.91459 1.16122C7.45087 0.507678 8.389 0.0386121 9.1498 0C9.23989 0.902378 8.88809 1.78903 8.3604 2.44972H8.35897ZM9.14122 3.69389C7.89848 3.61809 6.83164 4.4075 6.24245 4.4075C5.64039 4.4075 4.73801 3.73107 3.75555 3.75395C2.48135 3.76968 1.2901 4.49759 0.642273 5.66882C-0.706289 7.99842 0.291904 11.4478 1.58755 13.3469C2.22108 14.285 2.97902 15.3133 3.97864 15.2847C4.92392 15.246 5.30432 14.6597 6.44409 14.6597C7.59817 14.6597 7.92565 15.2847 8.93243 15.2618C9.96637 15.246 10.6213 14.3236 11.2549 13.3855C11.9771 12.3201 12.2745 11.2762 12.2902 11.2247C12.2745 11.2018 10.2867 10.4353 10.2724 8.1257C10.2567 6.18794 11.8355 5.26554 11.9027 5.21263C11.016 3.87265 9.616 3.73107 9.13979 3.69532L9.14122 3.69389ZM16.3145 1.07113V15.1645H18.481V10.3466H21.4771C24.2099 10.3466 26.132 8.44746 26.132 5.70601C26.132 2.95883 24.2485 1.07256 21.5514 1.07256L16.3145 1.07113ZM18.481 2.91879H20.9765C22.8528 2.91879 23.9268 3.93128 23.9268 5.71173C23.9268 7.49217 22.8528 8.51325 20.9622 8.51325H18.481V2.91879ZM30.0775 15.2689C31.4404 15.2689 32.6989 14.5768 33.2738 13.4728H33.3195V15.1645H35.3216V8.14715C35.3216 6.12216 33.7142 4.80506 31.233 4.80506C28.9392 4.80506 27.2403 6.13789 27.1816 7.96267H29.1251C29.2896 7.09175 30.079 6.52544 31.1744 6.52544C32.5001 6.52544 33.238 7.15038 33.238 8.29874V9.07241L30.5423 9.23687C28.024 9.39274 26.6682 10.4281 26.6682 12.2386C26.6682 14.0634 28.0697 15.2704 30.079 15.2704L30.0775 15.2689ZM30.6667 13.6C29.5112 13.6 28.7747 13.0409 28.7747 12.1857C28.7747 11.299 29.4826 10.7771 30.8298 10.6941L33.2366 10.5454V11.3419C33.2366 12.6619 32.1268 13.6 30.6582 13.6H30.6667ZM37.9959 19C40.1024 19 41.0949 18.1806 41.9586 15.7151L45.7569 4.94521H43.5603L41.0133 13.264H40.9676L38.4206 4.94521H36.1568L39.8221 15.2017L39.6276 15.8267C39.2915 16.8778 38.7567 17.2853 37.8028 17.2853C37.6312 17.2853 37.3037 17.2639 37.1693 17.2496V18.9414C37.2951 18.9771 37.8328 18.9928 37.9887 18.9928L37.9959 19Z" fill="#EAEAE0"/>
</svg>
