<svg width="560" height="78" viewBox="0 0 560 78" fill="none" xmlns="http://www.w3.org/2000/svg">
<path d="M1.41561e-07 48.8C1.41561e-07 42.9333 1.2 37.8333 3.6 33.5C6.06667 29.1 9.46667 25.7333 13.8 23.4C18.2 21.0667 23.2 19.9 28.8 19.9C36.1333 19.9 42.3 21.9667 47.3 26.1C52.3667 30.2333 55.5667 35.9667 56.9 43.3H33.4C32.5333 40.3667 30.8333 38.9 28.3 38.9C26.5 38.9 25.0667 39.7333 24 41.4C23 43.0667 22.5 45.5333 22.5 48.8C22.5 52.0667 23 54.5333 24 56.2C25.0667 57.8667 26.5 58.7 28.3 58.7C30.8333 58.7 32.5333 57.2333 33.4 54.3H56.9C55.5667 61.6333 52.3667 67.3667 47.3 71.5C42.3 75.6333 36.1333 77.7 28.8 77.7C23.2 77.7 18.2 76.5333 13.8 74.2C9.46667 71.8667 6.06667 68.5333 3.6 64.2C1.2 59.8 1.41561e-07 54.6667 1.41561e-07 48.8ZM90.7375 77.7C85.0708 77.7 79.9708 76.5333 75.4375 74.2C70.9042 71.8667 67.3375 68.5333 64.7375 64.2C62.2042 59.8 60.9375 54.6667 60.9375 48.8C60.9375 42.9333 62.2042 37.8333 64.7375 33.5C67.3375 29.1 70.9042 25.7333 75.4375 23.4C79.9708 21.0667 85.0708 19.9 90.7375 19.9C96.4042 19.9 101.504 21.0667 106.038 23.4C110.571 25.7333 114.104 29.1 116.638 33.5C119.238 37.8333 120.538 42.9333 120.538 48.8C120.538 54.6667 119.238 59.8 116.638 64.2C114.104 68.5333 110.571 71.8667 106.038 74.2C101.504 76.5333 96.4042 77.7 90.7375 77.7ZM90.7375 58.5C92.8042 58.5 94.5375 57.7 95.9375 56.1C97.3375 54.4333 98.0375 52 98.0375 48.8C98.0375 45.6 97.3375 43.2 95.9375 41.6C94.5375 39.9333 92.8042 39.1 90.7375 39.1C88.6708 39.1 86.9375 39.9333 85.5375 41.6C84.1375 43.2 83.4375 45.6 83.4375 48.8C83.4375 52 84.1042 54.4333 85.4375 56.1C86.8375 57.7 88.6042 58.5 90.7375 58.5ZM167.012 20.2C173.478 20.2 178.512 22.3667 182.112 26.7C185.778 31.0333 187.612 36.9 187.612 44.3V77H165.512V47.1C165.512 44.4333 164.778 42.3333 163.312 40.8C161.912 39.2 160.012 38.4 157.612 38.4C155.145 38.4 153.212 39.2 151.812 40.8C150.412 42.3333 149.712 44.4333 149.712 47.1V77H127.512V20.6H149.712V29.2C151.445 26.5333 153.745 24.3667 156.612 22.7C159.545 21.0333 163.012 20.2 167.012 20.2ZM251.838 48.3C251.838 49.8333 251.738 51.3 251.538 52.7H215.838C216.172 57.5667 218.205 60 221.938 60C224.338 60 226.072 58.9 227.138 56.7H250.638C249.838 60.7 248.138 64.3 245.538 67.5C243.005 70.6333 239.772 73.1333 235.838 75C231.972 76.8 227.705 77.7 223.038 77.7C217.438 77.7 212.438 76.5333 208.038 74.2C203.705 71.8667 200.305 68.5333 197.838 64.2C195.438 59.8 194.238 54.6667 194.238 48.8C194.238 42.9333 195.438 37.8333 197.838 33.5C200.305 29.1 203.705 25.7333 208.038 23.4C212.438 21.0667 217.438 19.9 223.038 19.9C228.638 19.9 233.605 21.0667 237.938 23.4C242.338 25.6667 245.738 28.9333 248.138 33.2C250.605 37.4667 251.838 42.5 251.838 48.3ZM229.338 43C229.338 41.1333 228.738 39.7333 227.538 38.8C226.338 37.8 224.838 37.3 223.038 37.3C219.105 37.3 216.805 39.2 216.138 43H229.338ZM255.859 48.8C255.859 42.9333 257.059 37.8333 259.459 33.5C261.926 29.1 265.326 25.7333 269.659 23.4C274.059 21.0667 279.059 19.9 284.659 19.9C291.993 19.9 298.159 21.9667 303.159 26.1C308.226 30.2333 311.426 35.9667 312.759 43.3H289.259C288.393 40.3667 286.693 38.9 284.159 38.9C282.359 38.9 280.926 39.7333 279.859 41.4C278.859 43.0667 278.359 45.5333 278.359 48.8C278.359 52.0667 278.859 54.5333 279.859 56.2C280.926 57.8667 282.359 58.7 284.159 58.7C286.693 58.7 288.393 57.2333 289.259 54.3H312.759C311.426 61.6333 308.226 67.3667 303.159 71.5C298.159 75.6333 291.993 77.7 284.659 77.7C279.059 77.7 274.059 76.5333 269.659 74.2C265.326 71.8667 261.926 68.5333 259.459 64.2C257.059 59.8 255.859 54.6667 255.859 48.8ZM354.897 58.1V77H346.497C331.03 77 323.297 69.3 323.297 53.9V39.1H316.297V20.6H323.297V7H345.497V20.6H354.697V39.1H345.497V54.3C345.497 55.6333 345.797 56.6 346.397 57.2C347.064 57.8 348.13 58.1 349.597 58.1H354.897ZM375.152 32.4C377.018 29.1333 379.752 26.4667 383.352 24.4C386.952 22.3333 391.052 21.3 395.652 21.3C400.585 21.3 405.018 22.4667 408.952 24.8C412.885 27.1333 415.985 30.4333 418.252 34.7C420.518 38.9 421.652 43.8 421.652 49.4C421.652 54.9333 420.518 59.8667 418.252 64.2C415.985 68.5333 412.852 71.9 408.852 74.3C404.918 76.7 400.518 77.9 395.652 77.9C390.918 77.9 386.752 76.8667 383.152 74.8C379.618 72.7333 376.952 70.1 375.152 66.9V77H366.052V3H375.152V32.4ZM412.352 49.4C412.352 45.2667 411.518 41.6667 409.852 38.6C408.185 35.5333 405.918 33.2 403.052 31.6C400.252 30 397.152 29.2 393.752 29.2C390.418 29.2 387.318 30.0333 384.452 31.7C381.652 33.3 379.385 35.6667 377.652 38.8C375.985 41.8667 375.152 45.4333 375.152 49.5C375.152 53.6333 375.985 57.2667 377.652 60.4C379.385 63.4667 381.652 65.8333 384.452 67.5C387.318 69.1 390.418 69.9 393.752 69.9C397.152 69.9 400.252 69.1 403.052 67.5C405.918 65.8333 408.185 63.4667 409.852 60.4C411.518 57.2667 412.352 53.6 412.352 49.4ZM438.33 13.3C436.596 13.3 435.13 12.7 433.93 11.5C432.73 10.3 432.13 8.83333 432.13 7.09999C432.13 5.36666 432.73 3.9 433.93 2.7C435.13 1.5 436.596 0.899996 438.33 0.899996C439.996 0.899996 441.396 1.5 442.53 2.7C443.73 3.9 444.33 5.36666 444.33 7.09999C444.33 8.83333 443.73 10.3 442.53 11.5C441.396 12.7 439.996 13.3 438.33 13.3ZM442.73 22.2V77H433.63V22.2H442.73ZM488.839 77L467.339 52.8V77H458.239V3H467.339V46.5L488.439 22.2H501.139L475.339 49.5L501.239 77H488.839ZM559.704 47.5C559.704 49.2333 559.604 51.0667 559.404 53H515.604C515.937 58.4 517.771 62.6333 521.104 65.7C524.504 68.7 528.604 70.2 533.404 70.2C537.337 70.2 540.604 69.3 543.204 67.5C545.871 65.6333 547.737 63.1667 548.804 60.1H558.604C557.137 65.3667 554.204 69.6667 549.804 73C545.404 76.2667 539.937 77.9 533.404 77.9C528.204 77.9 523.537 76.7333 519.404 74.4C515.337 72.0667 512.137 68.7667 509.804 64.5C507.471 60.1667 506.304 55.1667 506.304 49.5C506.304 43.8333 507.437 38.8667 509.704 34.6C511.971 30.3333 515.137 27.0667 519.204 24.8C523.337 22.4667 528.071 21.3 533.404 21.3C538.604 21.3 543.204 22.4333 547.204 24.7C551.204 26.9667 554.271 30.1 556.404 34.1C558.604 38.0333 559.704 42.5 559.704 47.5ZM550.304 45.6C550.304 42.1333 549.537 39.1667 548.004 36.7C546.471 34.1667 544.371 32.2667 541.704 31C539.104 29.6667 536.204 29 533.004 29C528.404 29 524.471 30.4667 521.204 33.4C518.004 36.3333 516.171 40.4 515.704 45.6H550.304Z" fill="url(#paint0_linear_14_5)"/>
<defs>
<linearGradient id="paint0_linear_14_5" x1="10.4932" y1="42" x2="565" y2="42" gradientUnits="userSpaceOnUse">
<stop stop-color="#1DC690"/>
<stop offset="1" stop-color="#278AB0"/>
</linearGradient>
</defs>
</svg>
