<svg width="158" height="23" viewBox="0 0 158 23" fill="none" xmlns="http://www.w3.org/2000/svg">
<path d="M0.56 14.104C0.56 12.4613 0.896 11.0333 1.568 9.82C2.25867 8.588 3.21067 7.64533 4.424 6.992C5.656 6.33867 7.056 6.012 8.624 6.012C10.6773 6.012 12.404 6.59067 13.804 7.748C15.2227 8.90533 16.1187 10.5107 16.492 12.564H9.912C9.66933 11.7427 9.19333 11.332 8.484 11.332C7.98 11.332 7.57867 11.5653 7.28 12.032C7 12.4987 6.86 13.1893 6.86 14.104C6.86 15.0187 7 15.7093 7.28 16.176C7.57867 16.6427 7.98 16.876 8.484 16.876C9.19333 16.876 9.66933 16.4653 9.912 15.644H16.492C16.1187 17.6973 15.2227 19.3027 13.804 20.46C12.404 21.6173 10.6773 22.196 8.624 22.196C7.056 22.196 5.656 21.8693 4.424 21.216C3.21067 20.5627 2.25867 19.6293 1.568 18.416C0.896 17.184 0.56 15.7467 0.56 14.104ZM25.9665 22.196C24.3798 22.196 22.9518 21.8693 21.6825 21.216C20.4132 20.5627 19.4145 19.6293 18.6865 18.416C17.9772 17.184 17.6225 15.7467 17.6225 14.104C17.6225 12.4613 17.9772 11.0333 18.6865 9.82C19.4145 8.588 20.4132 7.64533 21.6825 6.992C22.9518 6.33867 24.3798 6.012 25.9665 6.012C27.5532 6.012 28.9812 6.33867 30.2505 6.992C31.5198 7.64533 32.5092 8.588 33.2185 9.82C33.9465 11.0333 34.3105 12.4613 34.3105 14.104C34.3105 15.7467 33.9465 17.184 33.2185 18.416C32.5092 19.6293 31.5198 20.5627 30.2505 21.216C28.9812 21.8693 27.5532 22.196 25.9665 22.196ZM25.9665 16.82C26.5452 16.82 27.0305 16.596 27.4225 16.148C27.8145 15.6813 28.0105 15 28.0105 14.104C28.0105 13.208 27.8145 12.536 27.4225 12.088C27.0305 11.6213 26.5452 11.388 25.9665 11.388C25.3878 11.388 24.9025 11.6213 24.5105 12.088C24.1185 12.536 23.9225 13.208 23.9225 14.104C23.9225 15 24.1092 15.6813 24.4825 16.148C24.8745 16.596 25.3692 16.82 25.9665 16.82ZM47.3233 6.096C49.1339 6.096 50.5433 6.70267 51.5513 7.916C52.5779 9.12933 53.0913 10.772 53.0913 12.844V22H46.9033V13.628C46.9033 12.8813 46.6979 12.2933 46.2873 11.864C45.8953 11.416 45.3633 11.192 44.6913 11.192C44.0006 11.192 43.4593 11.416 43.0673 11.864C42.6753 12.2933 42.4793 12.8813 42.4793 13.628V22H36.2633V6.208H42.4793V8.616C42.9646 7.86933 43.6086 7.26267 44.4113 6.796C45.2326 6.32933 46.2033 6.096 47.3233 6.096ZM71.0747 13.964C71.0747 14.3933 71.0467 14.804 70.9907 15.196H60.9947C61.0881 16.5587 61.6574 17.24 62.7027 17.24C63.3747 17.24 63.8601 16.932 64.1587 16.316H70.7387C70.5147 17.436 70.0387 18.444 69.3107 19.34C68.6014 20.2173 67.6961 20.9173 66.5947 21.44C65.5121 21.944 64.3174 22.196 63.0107 22.196C61.4427 22.196 60.0427 21.8693 58.8107 21.216C57.5974 20.5627 56.6454 19.6293 55.9547 18.416C55.2827 17.184 54.9467 15.7467 54.9467 14.104C54.9467 12.4613 55.2827 11.0333 55.9547 9.82C56.6454 8.588 57.5974 7.64533 58.8107 6.992C60.0427 6.33867 61.4427 6.012 63.0107 6.012C64.5787 6.012 65.9694 6.33867 67.1827 6.992C68.4147 7.62667 69.3667 8.54133 70.0387 9.736C70.7294 10.9307 71.0747 12.34 71.0747 13.964ZM64.7747 12.48C64.7747 11.9573 64.6067 11.5653 64.2707 11.304C63.9347 11.024 63.5147 10.884 63.0107 10.884C61.9094 10.884 61.2654 11.416 61.0787 12.48H64.7747ZM72.2006 14.104C72.2006 12.4613 72.5366 11.0333 73.2086 9.82C73.8993 8.588 74.8513 7.64533 76.0646 6.992C77.2966 6.33867 78.6966 6.012 80.2646 6.012C82.318 6.012 84.0446 6.59067 85.4446 7.748C86.8633 8.90533 87.7593 10.5107 88.1326 12.564H81.5526C81.31 11.7427 80.834 11.332 80.1246 11.332C79.6206 11.332 79.2193 11.5653 78.9206 12.032C78.6406 12.4987 78.5006 13.1893 78.5006 14.104C78.5006 15.0187 78.6406 15.7093 78.9206 16.176C79.2193 16.6427 79.6206 16.876 80.1246 16.876C80.834 16.876 81.31 16.4653 81.5526 15.644H88.1326C87.7593 17.6973 86.8633 19.3027 85.4446 20.46C84.0446 21.6173 82.318 22.196 80.2646 22.196C78.6966 22.196 77.2966 21.8693 76.0646 21.216C74.8513 20.5627 73.8993 19.6293 73.2086 18.416C72.5366 17.184 72.2006 15.7467 72.2006 14.104ZM99.9311 16.708V22H97.5791C93.2485 22 91.0831 19.844 91.0831 15.532V11.388H89.1231V6.208H91.0831V2.4H97.2991V6.208H99.8751V11.388H97.2991V15.644C97.2991 16.0173 97.3831 16.288 97.5511 16.456C97.7378 16.624 98.0365 16.708 98.4471 16.708H99.9311ZM105.602 9.512C106.125 8.59733 106.89 7.85067 107.898 7.272C108.906 6.69333 110.054 6.404 111.342 6.404C112.724 6.404 113.965 6.73067 115.066 7.384C116.168 8.03733 117.036 8.96133 117.67 10.156C118.305 11.332 118.622 12.704 118.622 14.272C118.622 15.8213 118.305 17.2027 117.67 18.416C117.036 19.6293 116.158 20.572 115.038 21.244C113.937 21.916 112.705 22.252 111.342 22.252C110.017 22.252 108.85 21.9627 107.842 21.384C106.853 20.8053 106.106 20.068 105.602 19.172V22H103.054V1.28H105.602V9.512ZM116.018 14.272C116.018 13.1147 115.785 12.1067 115.318 11.248C114.852 10.3893 114.217 9.736 113.414 9.288C112.63 8.84 111.762 8.616 110.81 8.616C109.877 8.616 109.009 8.84933 108.206 9.316C107.422 9.764 106.788 10.4267 106.302 11.304C105.836 12.1627 105.602 13.1613 105.602 14.3C105.602 15.4573 105.836 16.4747 106.302 17.352C106.788 18.2107 107.422 18.8733 108.206 19.34C109.009 19.788 109.877 20.012 110.81 20.012C111.762 20.012 112.63 19.788 113.414 19.34C114.217 18.8733 114.852 18.2107 115.318 17.352C115.785 16.4747 116.018 15.448 116.018 14.272ZM123.292 4.164C122.807 4.164 122.396 3.996 122.06 3.66C121.724 3.324 121.556 2.91333 121.556 2.428C121.556 1.94267 121.724 1.532 122.06 1.196C122.396 0.859999 122.807 0.691999 123.292 0.691999C123.759 0.691999 124.151 0.859999 124.468 1.196C124.804 1.532 124.972 1.94267 124.972 2.428C124.972 2.91333 124.804 3.324 124.468 3.66C124.151 3.996 123.759 4.164 123.292 4.164ZM124.524 6.656V22H121.976V6.656H124.524ZM137.435 22L131.415 15.224V22H128.867V1.28H131.415V13.46L137.323 6.656H140.879L133.655 14.3L140.907 22H137.435ZM157.277 13.74C157.277 14.2253 157.249 14.7387 157.193 15.28H144.929C145.022 16.792 145.536 17.9773 146.469 18.836C147.421 19.676 148.569 20.096 149.913 20.096C151.014 20.096 151.929 19.844 152.657 19.34C153.404 18.8173 153.926 18.1267 154.225 17.268H156.969C156.558 18.7427 155.737 19.9467 154.505 20.88C153.273 21.7947 151.742 22.252 149.913 22.252C148.457 22.252 147.15 21.9253 145.993 21.272C144.854 20.6187 143.958 19.6947 143.305 18.5C142.652 17.2867 142.325 15.8867 142.325 14.3C142.325 12.7133 142.642 11.3227 143.277 10.128C143.912 8.93333 144.798 8.01867 145.937 7.384C147.094 6.73067 148.42 6.404 149.913 6.404C151.369 6.404 152.657 6.72133 153.777 7.356C154.897 7.99067 155.756 8.868 156.353 9.988C156.969 11.0893 157.277 12.34 157.277 13.74ZM154.645 13.208C154.645 12.2373 154.43 11.4067 154.001 10.716C153.572 10.0067 152.984 9.47467 152.237 9.12C151.509 8.74667 150.697 8.56 149.801 8.56C148.513 8.56 147.412 8.97067 146.497 9.792C145.601 10.6133 145.088 11.752 144.957 13.208H154.645Z" fill="#EAEAE0"/>
</svg>
