<svg width="12" height="17" viewBox="0 0 12 17" fill="none" xmlns="http://www.w3.org/2000/svg">
<path d="M9.25 4C9.25 5.79493 7.79492 7.25 6 7.25C4.20507 7.25 2.75 5.79493 2.75 4C2.75 2.20507 4.20507 0.75 6 0.75C7.79492 0.75 9.25 2.20507 9.25 4ZM6.16006 9.60965L10.6584 13.3583C10.7165 13.4067 10.7427 13.4709 10.7437 13.5287C10.7447 13.5826 10.7253 13.6242 10.6857 13.656C8.66845 15.273 6.77801 15.6526 5.18042 15.4627C3.55776 15.2697 2.16921 14.4796 1.21741 13.6528C1.20113 13.6387 1.19436 13.6269 1.19063 13.6177C1.18641 13.6073 1.18291 13.5919 1.1841 13.5709C1.18657 13.5271 1.20946 13.4684 1.26654 13.4208L0.786407 12.8447L1.26654 13.4208L5.83996 9.60965C5.93268 9.53239 6.06735 9.53239 6.16006 9.60965Z" stroke="#EAEAE0" stroke-width="1.5"/>
</svg>
