<svg width="146" height="46" viewBox="0 0 146 46" fill="none" xmlns="http://www.w3.org/2000/svg">
<g clip-path="url(#clip0_15_74)">
<path d="M28.6378 27.5769C32.1856 25.6262 34.8755 24.1399 35.1073 24.0245C35.8487 23.6294 36.6147 22.5842 35.1073 21.7724C34.6206 21.5172 32 20.0769 28.6378 18.22L23.9771 22.933L28.6375 27.5769H28.6378Z" fill="#FFD900"/>
<path d="M23.9771 22.9331L9.13623 37.91C9.48434 37.9562 9.87764 37.8637 10.3415 37.6084C11.315 37.0751 21.6343 31.432 28.638 27.578L23.9771 22.9331Z" fill="#F43249"/>
<path d="M23.977 22.9332L28.6375 18.2431C28.6375 18.2431 11.3853 8.8157 10.3413 8.25943C9.94847 8.02553 9.50769 7.95638 9.11337 8.02553L23.977 22.933V22.9332Z" fill="#00EE76"/>
<path d="M23.9771 22.9331L9.11312 8.02563C8.50984 8.16521 8 8.69886 8 9.78979V36.145C8 37.1442 8.39457 37.8637 9.13598 37.9328L23.9768 22.9328L23.9771 22.9331Z" fill="#00D3FF"/>
<path d="M72.3736 19.9604C69.7071 19.9604 67.5039 22.0266 67.5039 24.8595C67.5039 27.6694 69.684 29.7587 72.3739 29.7587C75.0635 29.7587 77.2433 27.6925 77.2433 24.8595C77.2433 22.0266 75.0635 19.9604 72.3736 19.9604ZM72.3736 27.8092C70.9124 27.8092 69.6378 26.5782 69.6378 24.8377C69.6378 23.073 70.9134 21.8661 72.3736 21.8661C73.8338 21.8661 75.1094 23.073 75.1094 24.8377C75.1094 26.5782 73.8338 27.8092 72.3736 27.8092ZM61.7763 19.9604C59.0864 19.9604 56.9064 22.0266 56.9064 24.8595C56.9064 27.6694 59.0864 29.7587 61.7763 29.7587C64.4659 29.7587 66.646 27.6925 66.646 24.8595C66.646 22.0266 64.4659 19.9604 61.7761 19.9604H61.7763ZM61.7763 27.8092C60.3148 27.8092 59.0405 26.5782 59.0405 24.8377C59.0405 23.073 60.3161 21.8661 61.7763 21.8661C63.2375 21.8661 64.5122 23.073 64.5122 24.8377C64.5122 26.5782 63.2594 27.8092 61.7763 27.8092ZM49.1846 21.4698V23.536H54.1002C53.9606 24.6968 53.5675 25.5559 52.9874 26.1368C52.2688 26.8563 51.1557 27.6462 49.1846 27.6462C46.1464 27.6462 43.8051 25.1852 43.8051 22.1433C43.8051 19.1013 46.1476 16.5938 49.1846 16.5938C50.8304 16.5938 52.0139 17.2441 52.8949 18.0803L54.3551 16.6169C53.1257 15.4332 51.4799 14.5278 49.1846 14.5278C45.0332 14.5278 41.5547 17.9405 41.5547 22.097C41.5547 26.2538 45.0332 29.6664 49.1846 29.6664C51.4337 29.6664 53.1039 28.9238 54.4486 27.5298C55.8166 26.1599 56.2341 24.2323 56.2341 22.6769C56.2341 22.1895 56.1881 21.7482 56.1178 21.3765L49.1846 21.4698ZM100.711 23.0717C100.316 21.9803 99.0645 19.9604 96.5592 19.9604C94.0541 19.9604 91.9907 21.9343 91.9907 24.8595C91.9907 27.5989 94.0541 29.7587 96.7913 29.7587C99.0173 29.7587 100.293 28.3888 100.826 27.5989L99.18 26.4846C98.6229 27.2977 97.8813 27.831 96.7913 27.831C95.7012 27.831 94.9365 27.3437 94.4487 26.3448L100.918 23.6285L100.711 23.0717ZM94.1245 24.721C94.0785 22.8396 95.586 21.8649 96.6516 21.8649C97.5098 21.8649 98.2055 22.2828 98.4602 22.91L94.1245 24.721ZM88.8605 29.434H90.9943V15.0844H88.8605V29.434ZM85.383 21.0518H85.3137C84.8269 20.4709 83.9228 19.9604 82.7624 19.9604C80.3275 19.9604 78.1246 22.1201 78.1246 24.8595C78.1246 27.5989 80.3506 29.7358 82.7624 29.7358C83.9215 29.7358 84.8259 29.225 85.3137 28.621H85.383V29.3176C85.383 31.1989 84.3851 32.1966 82.7855 32.1966C81.4868 32.1966 80.6748 31.2449 80.3506 30.455L78.496 31.2449C79.0287 32.5454 80.444 34.1473 82.7855 34.1473C85.2896 34.1473 87.4003 32.661 87.4003 29.0623V20.2619H85.383V21.0518ZM82.948 27.8092C81.4868 27.8092 80.2584 26.5782 80.2584 24.8608C80.2584 23.1434 81.4878 21.889 82.948 21.889C84.3864 21.889 85.5455 23.1434 85.5455 24.8608C85.5445 26.555 84.3851 27.8092 82.948 27.8092ZM110.659 15.0846H105.557V29.434H107.691V24.0002H110.659C113.024 24.0002 115.343 22.2816 115.343 19.5424C115.343 16.803 113.024 15.0844 110.659 15.0844V15.0846ZM110.728 22.0047H107.713V17.0811H110.728C112.304 17.0811 113.232 18.4047 113.232 19.5422C113.21 20.6567 112.306 22.0047 110.728 22.0047ZM123.854 19.9372C122.323 19.9372 120.723 20.6107 120.074 22.1433L121.953 22.9332C122.37 22.1433 123.112 21.888 123.901 21.888C125.014 21.888 126.127 22.5612 126.15 23.7449V23.8848C125.755 23.6527 124.945 23.327 123.924 23.327C121.884 23.327 119.819 24.4647 119.819 26.555C119.819 28.4824 121.489 29.7127 123.344 29.7127C124.782 29.7127 125.57 29.0623 126.056 28.2966H126.126V29.4111H128.189V23.9077C128.166 21.3772 126.288 19.937 123.854 19.937V19.9372ZM123.599 27.786C122.903 27.786 121.928 27.4372 121.928 26.5792C121.928 25.4646 123.134 25.0466 124.178 25.0466C125.105 25.0466 125.546 25.2556 126.126 25.534C125.963 26.8576 124.827 27.786 123.599 27.786ZM135.633 20.2632L133.198 26.4625H133.129L130.602 20.2629H128.307L132.109 28.9466L129.952 33.7998H132.178L137.998 20.2629H135.633L135.633 20.2632ZM116.526 29.434H118.66V15.0844H116.526V29.434Z" fill="#EAEAE0"/>
</g>
<rect x="0.5" y="0.5" width="145" height="45" rx="11.5" stroke="#EAEAE0"/>
<defs>
<clipPath id="clip0_15_74">
<rect width="130" height="30" fill="white" transform="translate(8 8)"/>
</clipPath>
</defs>
</svg>
